<?xml version="1.0" encoding="utf-8"?>

<!DOCTYPE svg PUBLIC "-//W3C//DTD SVG 1.1//EN" "http://www.w3.org/Graphics/SVG/1.1/DTD/svg11.dtd">
<svg version="1.1" id="Layer_1" xmlns="http://www.w3.org/2000/svg" xmlns:xlink="http://www.w3.org/1999/xlink" x="0px" y="0px"
	 viewBox="0 0 1251 1920" enable-background="new 0 0 1251 1920" xml:space="preserve">
<path d="M1238.745,1598.817c-9.844,0.016-6.404-3.001-36.283-1.49c-15.978,0.811-10.868-2.871-29.168-2.279
	c-10.721,0.344-8.162-0.766-17.571,1.606c-8.568,1.377-15.631-2.074-31.349,4.752c-8.305,3.014-18.379,6.404-38.436,12.361
	c-21.046,6.257-16.619,0.046-24.477,6.945c-7.479,0.211-14.585,3.092-20.661,5.78c-0.294-0.302-0.837-0.856-1.16-1.179
	c-4.993,2.094-38.35,4.36-51.382,13.004c0.106-0.519,0.321-1.489,0.436-2.006c-13.705,10.602-31.476,11.837-35.059,13.157
	c-0.001,0.001-24.126,13.254-24.127,13.254c-20.897,11.41-15.018,10.204-30.956,16.126c-2.792,1.034-5.002,1.582-8.157,7.884
	c-2.842,1.274-5.931,2.525-9.263,3.061c-5.593,0.888-9.8,5.335-15.303,6.48c-8.319,1.711-28.466,11.573-32.668,12.843
	c-5.158,2.143-10.704,3.217-15.96,5.03c-6.064,2.478-13.021,1.265-19.019,4.059c-4.343,1.598-7.478,5.254-11.459,7.39
	c-8.336,3.027-17.795,0.457-26.013,4.121c-32.501,14.304-33.92,2.889-72.177,42.235c-5.414,5.562-5.756,6.45-8.496,3.297
	c-8.126-9.359-10.576-10.286-30.914-31.351c-0.622-4.935,0.128-9.958,0.731-14.904c0.768-8.986-0.645-18.155,0.92-27.086
	c0.919-5.301-0.778-10.581-0.63-15.858c0.117-11.957-1.111-8.793-2.456-18.766c-1.797-13.275-4.987-8.533-3.147-23.802
	c0-0.001,1.734-25.675,1.734-25.676c1.935-6.618,1.115-5.612,7.85-8.306c0-27.213-5.059-22.51,2.134-29.324
	c-6.292-31.461-15.962-0.943-10.896-36.95c3.207-22.801,0.072-9.934,5.736-28.813c-2.969-4.859-4.736-11.2-7.07-16.507
	c1.058-3.954,8.125-13.289,1.38-26.08c-3.173-6.02-7.35-8.553-12.67-10.224c-10.631-3.35-8.419-1.13-17.898,2.978
	c0.016,0.544,0.079,2.089,0.15,3.46c-3.79,3.376-6.594,5.846-8.031,9.998c0.511,2.044,6.397,14.126,2.019,18.987
	c-1.699,2.755-5.392,1.889-8.21,2.413c-6.936,11.98-13.046,5.247-15.085-2.181c-1.196-4.359-1.729-5.261-4.914-8.143
	c-21.615-19.562-278.895-1089.851-288.55-1157.485c1.23-0.498,4.689-1.931,5.483-2.237c1.103-16.547-4.999-14.532,1.042-33.936
	c2.999-1.004,5.357-3.353,6.646-6.616c1.577-0.304,1.798-0.332,2.798-0.521c0-0.001,1.437-10.201,1.437-10.202
	c-2.276-3.414-0.797-7.734-0.841-11.558c1.909,0.163,3.273,0.268,4.908,0.389c0.151-0.635,0.515-2.079,0.675-2.712
	c0.74-0.544,1.827-1.314,2.069-1.479c3.321-12.178,14.045-53.091,5.966-62.776c-0.009-7.406,0.43-14.829,0.2-22.2
	c-0.011-0.013-1.409-1.756-1.465-1.826c-2.801-7.424-1.074-5.39-10.045-12.814c-4.107,0.111-8.177-0.069-12.218,0.17
	c-3.671,0.121-6.232,3.872-9.859,3.75c-5.985-2.222-8.243-4.121-15.664-5.825c-1.366-0.314-11.506-11.362-12.796-17.784
	C255.074,116.151,227.736,13.061,225.72,0c-5.206,0-5.712-13.559,34.78,151.946c-3.429,8.052-3.072,7.752-0.436,13.458
	c0.971,6.559,1.82,13.366,6.852,17.999c0.823,5.642,0.502,11.474,1.768,17.076c1.616,8.229,0.84,5.406-1.682,10.702
	c0.067,1.538,0.201,2.99,0.501,4.688c-11.193-0.886-11.926-0.735-54.456-0.735c-1.469,1.773-3.569,1.971-5.834,2.156
	c-7.207,0.592-36.822,21.693-39.812,19.4c-11.218-6.159-8.131-10.565-13.604-19.798c1.333-8.574,0.371-17.338,0.948-25.936
	c0.423-4.456-0.808-8.806-2.107-12.88c2.068-4.169,0.243-8.904,1.206-13.274c2.118-9.679-0.423-12.211,1.893-20.975
	c2.307-8.727,0.128-17.562,1.091-28.874c-0.334-0.305-1.145-1.064-1.512-1.411c-0.311-23.224-3.922-15.089-2.471-33.422
	c1.06-6.646-3.298-31.943-0.988-42.108c-3.243-11.889-0.288-26.338-2.339-38.056H-0.047v1920.094h1251.094v-318.602
	C1247.378,1598.877,1243.515,1598.789,1238.745,1598.817z M579.593,1507.836c0.995,1.301,2.026,2.688,3.15,4.236
	c-0.77,1.291-1.264,2.955-2.904,3.34C576.223,1514.515,576.231,1509.078,579.593,1507.836z M294.842,329.374
	c-5.311-4.668-4.248-6.488-6.536-11.553c0.017-0.017,1.878-1.799,1.896-1.815c0.763-2.724,2.54-6.69,3.472-8.804
	C293.71,314.588,295.529,321.965,294.842,329.374z M292.201,281.982c0.459,1.928,0.917,4.018,1.44,6.561
	c-2.327,4.369-4.754,13.581-5.878,18.419c-0.488-0.008-1.397-0.009-1.893-0.009C292.15,291.663,288.359,288.324,292.201,281.982z
	 M281.535,285.078c-0.083-0.074-1.128-1.032-1.273-1.164c1.067-4.496-1.978-8.722-1.323-13.118c3.022,0.612,4.34,4.023,6.598,5.905
	c0.041-0.009,3.743-0.766,3.802-0.778c-2.683,7.794-3.313,16.186-4.793,24.22c0.011-0.147,0.304-4.1,0.312-4.236
	C282.504,292.611,281.968,289.084,281.535,285.078z M281.581,268.011c1.54,0.099,2.887,0.198,4.115,0.303
	c0.052,0.663,0.203,2.891,0.273,4.097C283.575,271.498,282.099,270.018,281.581,268.011z M283.299,184.641
	c0.385,0.52,0.843,1.178,1.254,1.732c3.277,0.517,4.192,3.849,5.292,6.477c-3.202,3.481-7.43,6.844-7.91,11.808
	c-1.025,0.976-2.067,1.958-3.076,2.908c-2.366-2.153-3.113-5.346-4.363-8.148c-0.041-0.371-0.175-1.688-0.228-2.174
	c1.234-1.604,3.613-2.968,3.154-5.303c-1.281-2.783-3.026-5.436-5.97-6.324c0.029,1.874,0.064,2.68,0.1,3.873
	c-0.25-2.465-0.64-4.875-1.162-7.183C274.181,184.573,278.759,185.401,283.299,184.641z M170.537,251.1
	c5.584-2.15,7.667,4.698,10.461,8.167c5.15,0,15.862-8.346,19.403-8.913c0,0,0.322,0.025,9.081-7.171
	c0.146-0.035,2.775-0.662,2.907-0.691c0,0,1.276-1.823,1.276-1.824c1.44,0.025,3.516,0.061,5.147,0.08
	c0.116-1,0.046-0.481,0.468-4.034c10.729,3.817,5.999,1.304,12.628,1.881c7.425,1.889,14.617,4.788,22.005,6.832
	c-0.273,0.382-0.764,1.081-1.039,1.478c-1.756,0.122-3.738,0.287-4.738,0.36l-1.282,1.562c-2.208,0.335-26.646,5.787-30.017,6.962
	c-5.851,3.041-14.513,15.023-21.14,17.99c-5.377,2.664-10.042,6.575-15.227,9.555c-1.623,1.228-3.649,0.345-5.539,0.431
	c-5.379,0.828-6.076,3.323-17.452-2.686c-1.786-7.825-1.601-15.987-2.819-23.879C166.225,252.274,165.124,256.74,170.537,251.1z
	 M570.884,1613.988c-0.914,0.824-16.619,17.71-21.838,23.899c-6.874,7.336,7.565,61.453,6.896,76.183
	c1,0.419,1.044,0.434,3.063,1.295c2.705,6.368-2.342,8.329-9.743,9.974c-0.256,0.384-1.52,2.195-2.033,2.984
	c1.139,3.493,0.175,4.071,3.889,4.786c2.786,0.536,5.667,1.09,7.975,2.922c-1.697,23.651-11.203,23.392-12.408,39.368
	c-4.175,10.2-0.561,3.803-4.058,14.012c-0.887,2.593-1.804,5.273-1.893,8.104c-0.705,1.107-1.401,2.259-2.068,3.424
	c-2.686-2.059-5.995-2.774-9.239-3.493c-3.009-1.592-5.507-4.2-8.919-5c-5.761-3.332-12.488-6.038-19.989-8.039
	c-3.352-1.394-5.918-4.353-9.516-5.243c-18.994-5-10.147-5.885-25.672-10.538c-13.789-4.122-13.352-0.981-20.109-9.975
	c-5.356-7.129-5.152-7.529-6.567-11.57c-9.362-26.724-15.877-19.36-23.967-30.92c-5.42-7.749-7.638-4.081-19.188-19.717
	c-2.883-2.387-5.362-5.253-7.904-7.956c-18.703-20.89-91.313-68.106-115.317-78.831c-4.006-1.674-5.133-4.654-9.28-0.934
	c-6.842,6.135-8.276,0.599-23.894,5.054c-0.814-0.849-1.988-2.062-2.82-2.929c0.159-0.434,0.28-0.763,0.434-1.174
	c-8.809-57.26,17.237-32.462,6.836-76.562c-1.525-6.482,5.137-10.623,4.542-21.185c-0.751-26.039-2.09-13.487-2.042-40.099
	c0.026-14.562,0.448-20.896-2.697-40.721c-0.373-16.902-16.334-83.659-18.851-91.207c-2.315-13.345-11.764-12.43-9.21-60.925
	c0.6-1.83,0.985-3.757,1.357-5.619c1.792-8.954,6.951-19.781,7.929-25.541c0.744-4.381,1.055-4.841,2.198-7.377
	c2.828-6.247-0.147-1.414,0.632-22.608c0.676-18.483,8.372-27.002,9.234-30.258c0.795-9.17,3.677-18.469,1.969-27.743
	c-0.54-2.956,0.104-5.863,0.725-8.675c1.932-8.737-0.318-6.703,3.654-14.845c3.908-8.014,2.987-9.341,0.861-13.679
	c-2.972-6.062-1.874-5.084-1.89-15.22c-0.01-6.419,0.072-6.702,0.574-9.163c0.162-0.794,0.701-3.513,0.493-4.3
	c-1.048-2.274-8.733-9.319-7.345-21.813c-3.3-17.601-0.118-8.945-2.668-19.771c-0.565-2.398-1.149-4.879-1.113-7.416
	c-2.998-14-6.139-12.899-5.875-21.536c0.606-19.714-7.286-22.729-7.024-33.383c0.05-2.206-0.957-4.199-1.542-6.223
	c-10.096-38.985-6.603-12.085-12.04-39.397c-1.126-5.799-3.402-11.393-4.079-17.273c-0.21-4.376-3.596-7.511-5.445-11.18
	c-4.364-8.24-5.562-17.737-8.494-26.462c0.082-0.634,0.121-0.812,0.181-1.232c-1.776-4.198-9.649-29.785-24.153-37.773
	c-7.001-4.431-6.322,0.667-14.484-15.514c-1.04-1.793,1.206-41.295,1.276-42.306c0.727-1.947,6.644-66.875,5.73-98.759
	c-3.38-19.144,0.089-117.922-1.519-131.89c0.635-3.777,0.606-7.655,0.579-11.405c-0.126-17.049,2.096-9.205,0.261-20.443
	c1.324-4.434,0.482-9.134,1.209-13.641c0.189-4.181,2.025-8.574,0.682-12.694c0.684-2.498,1.619-4.909,3.82-6.348
	c0.952-2.666,1.37-5.247,0.589-8.034c1.319-9.976,4.816-12.047,2.745-17.191c0.091-0.138,0.678-1.03,0.764-1.171
	c0.105-2.74-0.002-5.928-0.528-8.662c2.561-8.45-3.385-10.181-0.496-27.489c2.508-15.052,0.456-11.187,1.647-19.699
	c1.514-10.844-3.136-11.109-3.642-23.206c-0.12-5.159-3.356-9.843-2.541-15.053c0.55-4.116-0.29-20.62-1.416-25.604
	c-1.684-7.453-0.786-49.838-0.404-50.346c0.465-0.62,1.272-1.027,2.158-1.09c3.683,1.126,5.755,6.323,10.141,5.227
	c4.884-1.75,10.22-3.285,13.159-7.767c1.398,0.032,2.364,0.892,3.386,1.801c2.596,2.31,7.405,3.208,10.375,3.587
	c2.112,0.645,3.465-1.384,4.992-2.364c1,0.277,2.068,0.579,3.152,0.875c-2.993-4.988,4.733-6.549,11.753-14.638
	c1.946-2.242,4.392-5.087,7.248-6.768c0.029-0.127,1.105-4.473,1.137-4.6c2.031-0.358,4.134-0.653,6.141-0.876
	c0.867-0.67,1.496-1.14,2.536-1.779c1.226-0.084,30.475-0.555,41.072-0.29c3.728,10.938,5.344,22.556,8.564,33.604
	c-0.874,2.966-1.102,5.595-0.699,8.034c-1.39,3.224-3.784,6.11-3.889,9.792c0.854,1.048,2.025,1.103,3.387,1.203
	c0.503-1.173,0.933-2.16,1.668-3.748c0.943,0.696,1.92,1.394,2.865,2.069c0,0,176.177,764.519,279.843,1136.213
	c3.003,9.356,0.853,10.626-1.004,19.538c3.864,12.143,5.716,8.923,2.14,23.824c-3.238,13.488-6.657,36.398,7.239,37.447
	c-0.205,4.871,0.159,9.833-0.317,14.706c-1.925,8.889,0.234,18.167-1.411,27.086C572.539,1592.69,571.214,1603.348,570.884,1613.988
	z M573.371,1608.453c0.525-5.41,4.266-59.589,3.948-63.513c3.847-3.222,5.878-0.817,17.638-4.262
	c0.637,2.47,1.145,4.948,1.806,7.396c-0.262,2.955-1.209,6.001-2.955,9.005c1-0.023,1.753-0.052,4.109-0.052
	c0.535,1.593,0.943,2.802,1.352,4.054c-2.131,0.278-4.696,0.545-5.696,0.666c-1.168,4.617-1.28,5.154-1.293,5.206
	c2.507,2.821,6.439,4.52,1.613,15.048c0.546,4.731-3.131,8.278-6.751,11.248c0.445,4.452-2.326,6.323-11.417,15.72
	C575.226,1608.86,573.845,1608.554,573.371,1608.453z M625.042,1734.221c-2.806,2.57-6.585,3.547-10.106,2.615
	c-6.677-2.411-13.966-2.29-20.782-4.135c-0.44-1.005-0.739-1.722-1.114-2.583c4.027-11.333-3.122-17.217-6.984-36.141
	c-6.061-29.715-6.889-28.256-6.949-32.996c0.109-3.982-2.574-7.231-3.43-10.926c0.2-3.491,3.131-4.705,5.966-5.88
	c4.72-1.955,1.577-0.682,13.078-9.406c15.183-11.515,12.896-7.793,17.785-11.051c1.138,0.976,2.893,1.634,3.138,3.311
	c3.2,14.287,5.586,13.814,6.4,41.05c2.039,11.063,3.048,22.139,3,32.927C627.256,1717.557,624.834,1728.889,625.042,1734.221z"/>
</svg>
